<?xml version="1.0" encoding="UTF-8"?>
<svg width="100pt" height="90pt" version="1.1" viewBox="0 0 700 700" xmlns="http://www.w3.org/2000/svg" xmlns:xlink="http://www.w3.org/1999/xlink">

 <g>
  <path d="m122.5 542.5h52.5v-35h35v-52.5h-17.5v-17.5h232.45l21.297-35.5 21.297 35.5h39.953v17.5h-17.5v52.5h35v35h52.5v-35h35v-52.5h-17.5v-350h17.5v-52.5h-35v-35h-52.5v35h-35v52.5h17.5v17.5h-232.45l-21.297 35.5-21.297-35.5h-39.953v-17.5h17.5v-52.5h-35v-35h-52.5v35h-35v52.5h17.5v350h-17.5v52.5h35zm35-17.5h-17.5v-17.5h17.5zm402.5 0h-17.5v-17.5h17.5zm35-35h-87.5v-17.5h87.5zm-52.5-455h17.5v17.5h-17.5zm-35 35h87.5v17.5h-87.5zm17.5 35h52.5v350h-52.5zm-302.45 35 31.203 52 31.203-52h222.55v17.5h-96.25v17.5h96.25v245h-30.047l-31.203-52-31.203 52h-222.55v-280zm-82.547-105h17.5v17.5h-17.5zm-35 35h87.5v17.5h-87.5zm17.5 35h52.5v350h-52.5zm-17.5 385v-17.5h87.5v17.5z" fill="#FFF205"/>
  <path d="m262.5 385h-35v-52.5h-17.5v70h52.5z" fill="#FFF205"/>
  <path d="m280 385h17.5v17.5h-17.5z" fill="#FFF205"/>
  <use x="70" y="691.25" xlink:href="#m"/>
  <use x="102.109375" y="691.25" xlink:href="#i"/>
  <use x="123.683594" y="691.25" xlink:href="#a"/>
  <use x="153.355469" y="691.25" xlink:href="#c"/>
  <use x="182.878906" y="691.25" xlink:href="#h"/>
  <use x="203.792969" y="691.25" xlink:href="#a"/>
  <use x="233.464844" y="691.25" xlink:href="#g"/>
  <use x="280.011719" y="691.25" xlink:href="#f"/>
  <use x="311.328125" y="691.25" xlink:href="#e"/>
  <use x="355.078125" y="691.25" xlink:href="#d"/>
  <use x="386.589844" y="691.25" xlink:href="#l"/>
  <use x="432.175781" y="691.25" xlink:href="#c"/>
  <use x="461.699219" y="691.25" xlink:href="#b"/>
  <use x="476.695312" y="691.25" xlink:href="#b"/>
  <use x="491.691406" y="691.25" xlink:href="#b"/>
  <use x="506.6875" y="691.25" xlink:href="#k"/>
  <use x="521.683594" y="691.25" xlink:href="#j"/>
  <use x="550.78125" y="691.25" xlink:href="#a"/>
 </g>
</svg>
