<?xml version="1.0" encoding="UTF-8"?>
<svg width="90pt" height="90pt" version="1.1" viewBox="0 0 700 700" xmlns="http://www.w3.org/2000/svg" xmlns:xlink="http://www.w3.org/1999/xlink">
 
 <g>
  <path d="m580.27 392.72-169.61-111.97 170.44-110.91c3.6953-2.3945 4.7344-7.3398 2.3398-11.023-12.402-19.086-31.523-32.188-53.781-36.902-22.289-4.7031-45.039-0.46875-64.137 11.953l-139.4 90.703-38.445-25.297c0.042969-0.066406 0.097657-0.15234 0.15234-0.23047 13.805-20.824 18.637-45.785 13.605-70.285-5.0195-24.457-19.262-45.531-40.098-59.348-20.812-13.805-45.762-18.66-70.285-13.605-24.461 5.0234-45.551 19.262-59.352 40.109-13.812 20.824-18.637 45.785-13.605 70.285 5.0195 24.457 19.273 45.531 40.109 59.348l82.414 54.664-82.809 53.891c-43.258 28.141-55.551 86.219-27.41 129.48 13.629 20.957 34.605 35.34 59.062 40.512 6.5078 1.3789 13.059 2.0547 19.555 2.0547 17.914 0 35.48-5.1719 50.848-15.172 20.957-13.629 35.352-34.605 40.523-59.062s0.51562-49.461-13.113-70.406c-0.066407-0.10938-0.14063-0.21875-0.20703-0.31641l38.379-24.969 138.93 91.82c14.461 9.5039 30.766 14.055 46.879 14.043 27.758 0 54.984-13.477 71.289-38.305 2.418-3.7031 1.4102-8.625-2.2773-11.062zm-413.25-180.47c-17.312-11.473-29.137-28.973-33.305-49.262-4.1797-20.312-0.17578-40.992 11.277-58.254 11.473-17.312 28.973-29.137 49.262-33.305 20.301-4.1445 40.984-0.17578 58.266 11.277 17.312 11.461 29.137 28.961 33.293 49.25 4.1797 20.312 0.17578 40.992-11.242 58.211-0.74219 1.125-1.6523 2.1562-2.5273 3.1602-0.85156 0.99609-1.6953 1.9805-2.4297 2.9648-1.3438 1.7617-1.8828 3.9922-1.5078 6.168 0.37109 2.1758 1.6406 4.1016 3.4883 5.3047l39.941 26.293-56.359 36.672zm102.08 152.05 1.9922 2.3633c0.96094 1.125 1.957 2.2422 2.8008 3.5312 11.309 17.391 15.172 38.129 10.871 58.406-4.2891 20.289-16.23 37.691-33.602 49-17.391 11.309-38.117 15.172-58.406 10.883-20.289-4.2891-37.691-16.23-49-33.602-11.297-17.391-15.172-38.129-10.871-58.418 4.2969-20.289 16.23-37.691 33.602-49l307.71-200.23c11.387-7.4062 24.379-11.234 37.656-11.234 4.8125 0 9.6562 0.50391 14.492 1.5312 15.465 3.2812 29.07 11.539 38.98 23.559l-294.36 191.52c-1.9023 1.2344-3.1836 3.2031-3.5312 5.4258-0.33984 2.2305 0.25 4.5078 1.6602 6.2656zm204.05 50.402-133.13-87.98 56.055-36.477 168.39 111.16c-22.246 26.59-61.586 32.812-91.316 13.301z" fill="#01fff4"/>
  <path d="m325.76 298.17c9.7461 0.03125 17.664-7.832 17.695-17.578s-7.832-17.664-17.578-17.695-17.664 7.832-17.695 17.578c-0.03125 9.7422 7.832 17.66 17.578 17.695z" fill="#01fff4"/>
  <path d="m210.41 363.02h-0.19531c-13.605 0-26.402 5.2734-36.07 14.875-9.7031 9.6367-15.082 22.477-15.125 36.16-0.097657 28.23 22.805 51.285 51.035 51.383h0.19531c13.605 0 26.402-5.2734 36.07-14.875 9.7031-9.6367 15.082-22.477 15.125-36.16 0.078125-28.227-22.805-51.285-51.035-51.383zm24.656 76.234c-6.6719 6.6289-15.902 10.008-24.969 10.238-19.445-0.066406-35.195-15.945-35.141-35.383 0.03125-9.418 3.7305-18.254 10.414-24.895 6.6484-6.6055 15.465-10.238 24.84-10.238h0.12109c19.438 0.066406 35.195 15.945 35.133 35.395-0.019531 9.4062-3.7188 18.242-10.398 24.883z" fill="#01fff4"/>
  <path d="m211.34 98.535h-0.19531c-13.605 0-26.402 5.2734-36.07 14.875-9.7031 9.6367-15.082 22.477-15.125 36.16-0.097656 28.23 22.805 51.285 51.035 51.383h0.19531c13.605 0 26.402-5.2734 36.07-14.875 9.7031-9.6367 15.082-22.477 15.125-36.16 0.089844-28.227-22.805-51.285-51.035-51.383zm24.664 76.234c-6.6484 6.6055-15.465 10.238-24.84 10.238h-0.12109c-19.445-0.066406-35.195-15.945-35.141-35.383 0.03125-9.418 3.7305-18.254 10.414-24.895 6.6484-6.6055 15.465-10.238 24.84-10.238h0.12109c19.438 0.066406 35.195 15.945 35.133 35.395-0.023437 9.3945-3.7227 18.246-10.406 24.883z" fill="#01fff4"/>
  <use x="70" y="576.40625" xlink:href="#i"/>
  <use x="74.011719" y="576.40625" xlink:href="#c"/>
  <use x="76.710938" y="576.40625" xlink:href="#a"/>
  <use x="80.417969" y="576.40625" xlink:href="#g"/>
  <use x="84.109375" y="576.40625" xlink:href="#b"/>
  <use x="86.722656" y="576.40625" xlink:href="#a"/>
  <use x="90.433594" y="576.40625" xlink:href="#f"/>
  <use x="96.25" y="576.40625" xlink:href="#k"/>
  <use x="100.167969" y="576.40625" xlink:href="#j"/>
  <use x="105.636719" y="576.40625" xlink:href="#i"/>
  <use x="109.648438" y="576.40625" xlink:href="#c"/>
  <use x="112.34375" y="576.40625" xlink:href="#a"/>
  <use x="116.054687" y="576.40625" xlink:href="#g"/>
  <use x="119.746094" y="576.40625" xlink:href="#b"/>
  <use x="122.359375" y="576.40625" xlink:href="#e"/>
  <use x="124.234375" y="576.40625" xlink:href="#u"/>
  <use x="127.796875" y="576.40625" xlink:href="#a"/>
  <use x="133.410156" y="576.40625" xlink:href="#t"/>
  <use x="137.351562" y="576.40625" xlink:href="#b"/>
  <use x="139.964844" y="576.40625" xlink:href="#h"/>
  <use x="143.859375" y="576.40625" xlink:href="#f"/>
  <use x="147.773438" y="576.40625" xlink:href="#e"/>
  <use x="149.648438" y="576.40625" xlink:href="#d"/>
  <use x="70" y="581.875" xlink:href="#s"/>
  <use x="72.378906" y="581.875" xlink:href="#c"/>
  <use x="75.078125" y="581.875" xlink:href="#d"/>
  <use x="78.832031" y="581.875" xlink:href="#r"/>
  <use x="86.4375" y="581.875" xlink:href="#b"/>
  <use x="89.050781" y="581.875" xlink:href="#q"/>
  <use x="92.941406" y="581.875" xlink:href="#a"/>
  <use x="98.554688" y="581.875" xlink:href="#p"/>
  <use x="103.132812" y="581.875" xlink:href="#d"/>
  <use x="106.890625" y="581.875" xlink:href="#h"/>
  <use x="110.785156" y="581.875" xlink:href="#o"/>
  <use x="116.582031" y="581.875" xlink:href="#n"/>
  <use x="120.589844" y="581.875" xlink:href="#c"/>
  <use x="123.285156" y="581.875" xlink:href="#d"/>
  <use x="127.042969" y="581.875" xlink:href="#m"/>
  <use x="128.917969" y="581.875" xlink:href="#a"/>
  <use x="132.625" y="581.875" xlink:href="#l"/>
  <use x="135.867188" y="581.875" xlink:href="#b"/>
 </g>
</svg>
